<svg width="143.55mm" height="148.63mm" version="1.1" viewBox="0 0 143.55 148.63" xml:space="preserve" xmlns="http://www.w3.org/2000/svg"><g transform="translate(-35.043 -65.371)"><path d="m108.42 212.52c-12.498-3.3491-18.634-7.6501-30.474-21.361-12.261-14.199-40.652-66.998-42.475-78.99-0.93149-6.1283-0.48018-7.2462 2.9254-7.2462 4.8112 0 9.4966 5.2724 20.992 23.621 4.732 7.5533 8.9911 13.733 9.4647 13.733 1.0804 0-2.2498-10.078-13.249-40.092-9.039-24.666-9.7236-30.767-3.594-32.027 6.3087-1.2971 9.9624 4.1456 24.369 36.3 14.95 33.368 20.013 39.599 25.119 30.912 4.1704-7.0945 6.8139-17.374 10.605-41.237 4.076-25.656 5.9332-30.763 11.189-30.763 8.0485 0 8.9119 6.8062 5.429 42.797-4.0764 42.125-4.1431 61.059-0.24327 69.11 5.5893 11.54 14.115 11.848 30.424 1.101 12.904-8.5038 18.695-9.0189 19.671-1.7501 0.72687 5.4126-18.222 24.752-31.347 31.992-9.2788 5.1186-27.444 6.944-38.806 3.8995zm26.627-36.906c-6.3496-7.4907-2.4343-28.537 5.9476-31.971 16.405-6.721 26.314 13.773 14.132 29.229-6.1695 7.8279-14.773 9.0028-20.08 2.7422z" stroke-width="2.1266" fill="white"/></g></svg>
